<?xml version="1.0" standalone="no"?>
<!DOCTYPE svg PUBLIC "-//W3C//DTD SVG 20010904//EN"
 "http://www.w3.org/TR/2001/REC-SVG-20010904/DTD/svg10.dtd">
<svg version="1.0" xmlns="http://www.w3.org/2000/svg"
 width="512.000000pt" height="512.000000pt" viewBox="0 0 512.000000 512.000000"
 preserveAspectRatio="xMidYMid meet">
<metadata>
Created by potrace 1.14, written by Peter Selinger 2001-2017
</metadata>
<g transform="translate(0.000000,512.000000) scale(0.100000,-0.100000)"
fill="#000000" stroke="none">
<path d="M614 4689 c-77 -10 -127 -46 -165 -120 -22 -41 -22 -42 -22 -728 1
-605 3 -690 17 -723 21 -49 52 -81 105 -108 l43 -23 676 0 c472 0 689 4 718
12 23 6 57 27 78 48 72 72 68 32 68 793 1 758 3 729 -64 791 -69 63 -40 61
-753 63 -357 0 -673 -2 -701 -5z"/>
<path d="M3168 4688 c-72 -10 -123 -47 -159 -117 l-22 -43 0 -687 c1 -754 -2
-720 62 -789 62 -67 33 -65 791 -64 761 0 721 -4 793 68 21 21 42 55 48 78 8
29 12 246 12 717 l0 676 -24 48 c-25 50 -62 83 -117 105 -26 10 -175 13 -686
14 -359 1 -673 -2 -698 -6z"/>
<path d="M2465 4669 c-49 -26 -69 -46 -96 -99 -22 -41 -22 -52 -22 -410 0
-362 0 -369 23 -411 42 -81 104 -119 194 -119 83 0 146 40 187 120 22 41 22
52 22 410 0 362 -1 369 -23 412 -30 58 -45 73 -96 97 -58 28 -137 28 -189 0z"/>
<path d="M2477 3396 c-15 -7 -43 -27 -63 -45 -137 -130 -45 -361 144 -361 120
0 212 91 212 210 0 86 -39 149 -117 189 -48 24 -130 27 -176 7z"/>
<path d="M601 2768 c-99 -17 -171 -103 -171 -206 0 -66 19 -113 62 -153 69
-64 35 -61 789 -62 l687 0 43 22 c79 41 119 105 119 189 0 66 -19 113 -62 153
-69 63 -38 61 -765 63 -364 0 -679 -2 -702 -6z"/>
<path d="M2534 2769 c-77 -10 -127 -46 -165 -120 -22 -41 -22 -42 -22 -728 1
-744 -1 -724 55 -784 63 -67 175 -87 253 -46 49 26 69 46 96 99 22 41 22 49
24 593 1 304 2 555 3 558 2 5 825 6 843 1 3 -1 6 -107 6 -234 1 -249 6 -278
55 -331 63 -67 175 -87 253 -46 49 26 69 46 96 99 21 41 22 52 22 405 0 384
-1 396 -48 460 -12 17 -44 41 -70 54 l-48 24 -651 1 c-358 1 -674 -2 -702 -5z"/>
<path d="M4372 2743 c-44 -30 -68 -58 -88 -103 -15 -31 -16 -142 -17 -1035 0
-775 3 -1009 12 -1038 15 -44 72 -103 120 -123 43 -18 119 -18 162 0 50 21
107 83 120 130 9 29 12 328 12 1037 l0 997 -22 43 c-31 60 -45 74 -98 99 -62
29 -152 26 -201 -7z"/>
<path d="M637 2134 c-1 -1 -19 -4 -40 -7 -42 -5 -74 -24 -112 -64 -59 -63 -57
-36 -57 -783 -1 -758 -3 -729 64 -791 69 -64 35 -61 789 -62 l687 0 43 22 c53
28 72 47 100 102 22 41 22 43 22 724 0 542 -3 690 -13 717 -22 55 -55 92 -105
117 l-48 24 -664 1 c-366 1 -665 0 -666 0z"/>
<path d="M3105 1469 c-75 -40 -115 -105 -115 -187 0 -124 89 -212 214 -212
115 0 206 91 206 206 0 91 -48 165 -129 200 -50 21 -129 18 -176 -7z"/>
<path d="M3745 1469 c-75 -40 -115 -105 -115 -187 0 -66 19 -113 62 -153 63
-58 155 -76 230 -45 43 18 95 71 114 115 29 69 12 170 -38 224 -62 66 -176 87
-253 46z"/>
<path d="M2521 848 c-99 -17 -171 -103 -171 -206 0 -66 19 -113 62 -153 69
-64 35 -61 789 -62 l687 0 43 22 c79 41 119 105 119 189 0 66 -19 113 -62 153
-69 63 -38 61 -765 63 -364 0 -679 -2 -702 -6z"/>
</g>
</svg>
